<svg width="137px" height="39px" viewBox="0 0 137 39" version="1.1" xmlns="http://www.w3.org/2000/svg" xmlns:xlink="http://www.w3.org/1999/xlink">
    <!-- Generator: Sketch 51.2 (57519) - http://www.bohemiancoding.com/sketch -->
    <desc>Created with Sketch.</desc>
    <defs>
        <polygon id="path-1" points="30.2408299 38.7096774 0 38.7096774 0 0.162580645 30.2408299 0.162580645"></polygon>
    </defs>
    <g id="Edited-payment-page-gender" stroke="none" stroke-width="1" fill="none" fill-rule="evenodd">
        <g id="Payment-Page-Copy" transform="translate(-120.000000, -18.000000)">
            <g id="Payment-with-password" transform="translate(120.000000, 18.000000)">
                <g id="Group-9">
                    <g id="Logo">
                        <path d="M135.055312,20.9184516 C135.055312,19.1236129 134.6052,17.7713548 133.703686,16.8629677 C132.804751,15.9532903 131.463443,15.4952258 129.691368,15.4952258 L127.364714,15.4952258 L127.364714,26.4926452 L129.312191,26.4926452 C131.219686,26.4926452 132.653854,26.0242581 133.615985,25.0849032 C134.574247,24.1468387 135.055312,22.755871 135.055312,20.9184516 L135.055312,20.9184516 Z M136.750004,20.8629677 C136.750004,23.1365161 136.133518,24.8771613 134.900546,26.0771613 C133.667574,27.2771613 131.89163,27.8810323 129.575293,27.8810323 L125.764172,27.8810323 L125.764172,14.108129 L129.978976,14.108129 C132.11991,14.108129 133.783649,14.7016774 134.97148,15.8887742 C136.158022,17.0771613 136.750004,18.7365161 136.750004,20.8629677 L136.750004,20.8629677 Z M115.446415,20.7829677 L117.636359,20.7829677 C118.768733,20.7829677 119.596733,20.5584516 120.120359,20.1068387 C120.649144,19.6629677 120.912247,18.9855484 120.912247,18.0887742 C120.912247,17.1790968 120.645275,16.5210323 120.107462,16.1210323 C119.573518,15.7184516 118.710695,15.515871 117.524153,15.515871 L115.446415,15.515871 L115.446415,20.7829677 Z M115.446415,22.1532903 L115.446415,27.8810323 L113.845873,27.8810323 L113.845873,14.108129 L117.618303,14.108129 C119.306546,14.108129 120.554994,14.4332903 121.359779,15.0784516 C122.164564,15.7249032 122.568247,16.6978065 122.568247,17.9971613 C122.568247,19.8216774 121.648677,21.0526452 119.804378,21.6952258 L123.540695,27.8810323 L121.648677,27.8810323 L118.314751,22.1532903 L115.446415,22.1532903 Z M108.469032,27.8810323 L110.069574,27.8810323 L110.069574,14.108129 L108.469032,14.108129 L108.469032,27.8810323 Z M97.5747701,21.3623226 L97.5747701,26.5132903 L100.450845,26.5132903 C101.556135,26.5132903 102.395742,26.2965161 102.954191,25.8655484 C103.519088,25.4371613 103.800247,24.7636129 103.800247,23.8474839 C103.800247,22.9945806 103.51006,22.3674839 102.942583,21.9623226 C102.363499,21.5610323 101.491649,21.3623226 100.316714,21.3623226 L97.5747701,21.3623226 Z M97.5747701,20.0113548 L100.209667,20.0113548 C101.339462,20.0113548 102.153275,19.8345806 102.648527,19.4771613 C103.148938,19.1236129 103.395275,18.5249032 103.395275,17.6849032 C103.395275,16.912 103.117985,16.3507097 102.567275,16.0113548 C102.011406,15.6694194 101.138265,15.4952258 99.9310879,15.4952258 L97.5747701,15.4952258 L97.5747701,20.0113548 Z M95.974228,14.108129 L99.8640224,14.108129 C101.688976,14.108129 103.012228,14.3816774 103.826041,14.9287742 C104.641144,15.475871 105.049985,16.3416774 105.049985,17.5184516 C105.049985,18.3352258 104.826864,19.0100645 104.370303,19.5429677 C103.915032,20.072 103.252116,20.4139355 102.377686,20.5726452 L102.377686,20.6668387 C104.468321,21.0216774 105.512994,22.1236129 105.512994,23.9623226 C105.512994,25.1945806 105.096415,26.155871 104.267125,26.8461935 C103.433966,27.5365161 102.270639,27.8810323 100.777144,27.8810323 L95.974228,27.8810323 L95.974228,14.108129 Z" id="Fill-1" fill="#ED498D"></path>
                        <g id="Group-5" transform="translate(0.000000, 0.128387)">
                            <mask id="mask-2" fill="white">
                                <use xlink:href="#path-1"></use>
                            </mask>
                            <g id="Clip-4"></g>
                            <path d="M15.120157,2.11509677 C15.4683813,2.11509677 15.7521196,2.40025806 15.7521196,2.74735484 C15.7521196,3.09832258 15.4683813,3.3796129 15.120157,3.3796129 C14.7693533,3.3796129 14.4869047,3.09832258 14.4869047,2.74735484 C14.4869047,2.40025806 14.7693533,2.11509677 15.120157,2.11509677 L15.120157,2.11509677 Z M21.7738206,17.5976774 C22.2755215,17.5976774 22.6804935,17.9809032 22.6804935,18.4570323 C22.6804935,18.931871 22.2755215,19.3163871 21.7738206,19.3163871 C21.2721196,19.3163871 20.8658579,18.931871 20.8658579,18.4570323 C20.8658579,17.9809032 21.2721196,17.5976774 21.7738206,17.5976774 L21.7738206,17.5976774 Z M15.5831664,38.7099355 L14.6558579,38.7099355 L14.6558579,35.9654194 C14.9666804,35.9654194 15.2749234,35.9525161 15.5831664,35.9292903 L15.5831664,38.7099355 Z M17.3681383,0.788645161 L17.3681383,6.59896774 L17.3539514,6.59896774 L17.2804374,6.59122581 L17.2211103,6.58606452 L17.2017645,6.58606452 L17.125671,6.57832258 L17.0469981,6.57058065 L17.019914,6.57058065 L16.9709047,6.56412903 L16.8922318,6.55767742 L16.8148486,6.55380645 L16.8135589,6.55380645 L16.734886,6.54864516 L16.6575028,6.54348387 L16.6084935,6.54090323 L16.5788299,6.53832258 L16.4214841,6.52929032 L16.4008486,6.528 L16.3389421,6.52541935 L16.2615589,6.52025806 L16.191914,6.51767742 L16.1790168,6.51767742 L16.1003439,6.51251613 L16.0203813,6.50993548 L15.9804,6.50993548 L15.939129,6.50735484 L15.8591664,6.50477419 L15.8217645,6.50219355 L15.8217645,8.78219355 C23.8464,9.14864516 30.2408299,15.7744516 30.2408299,23.8931613 C30.2408299,29.8815484 26.7585869,35.0557419 21.7144935,37.5099355 L21.7144935,37.7550968 C21.7144935,38.2789677 21.2863065,38.7099355 20.7613907,38.7099355 L16.5569047,38.7099355 L16.5569047,35.8234839 C23.9985869,34.728 26.9623626,28.8054194 26.5444935,21.7873548 L28.602886,20.1834839 L26.1859514,19.3550968 C25.3889047,16.0286452 22.3271103,14.5899355 19.683185,15.1112258 C16.9502692,15.651871 14.8918766,18.0673548 15.0711477,21.3834839 C15.5612411,30.5770323 12.9263439,33.4376774 6.61574579,32.848 C8.55935327,34.7886452 11.1065495,35.7512258 13.6834093,35.9344516 L13.6834093,38.7099355 L9.47763364,38.7099355 C8.95271776,38.7099355 8.52324112,38.2789677 8.52324112,37.7550968 L8.52324112,37.5073548 C3.47785794,35.0557419 -0.00051588785,29.8815484 -0.00051588785,23.8931613 C-0.00051588785,15.7744516 6.3926243,9.14864516 14.4172598,8.78219355 L14.4172598,6.50219355 L14.3811477,6.50477419 L14.301185,6.50735484 L14.259914,6.50993548 L14.2173533,6.50993548 L14.1386804,6.51251613 L14.0587178,6.51767742 L14.0484,6.51767742 L13.9787551,6.52025806 L13.9000822,6.52541935 L13.8381757,6.528 L13.8201196,6.52929032 L13.6601944,6.53832258 L13.6305308,6.54090323 L13.5815215,6.54348387 L13.5041383,6.54864516 L13.4241757,6.55380645 L13.3455028,6.55767742 L13.2694093,6.56412903 L13.2191103,6.57058065 L13.1907364,6.57058065 L13.1133533,6.57832258 L13.0372598,6.58606452 L13.017914,6.58606452 L12.9598766,6.59122581 L12.8850729,6.59896774 L12.8695963,6.59896774 L12.8695963,0.788645161 C12.8695963,0.441548387 13.8768673,0.161548387 15.120157,0.161548387 C16.3634467,0.161548387 17.3681383,0.441548387 17.3681383,0.788645161 L17.3681383,0.788645161 Z" id="Fill-3" fill="#010202" mask="url(#mask-2)"></path>
                        </g>
                        <path d="M58.6570935,33.668 C59.1691121,33.668 59.5818224,34.0809032 59.5818224,34.5931613 C59.5818224,35.104129 59.1691121,35.5157419 58.6570935,35.5157419 C58.1463645,35.5157419 57.7323645,35.104129 57.7323645,34.5931613 C57.7323645,34.0809032 58.1463645,33.668 58.6570935,33.668" id="Fill-6" fill="#010202"></path>
                        <path d="M116.088566,33.668 C116.598006,33.668 117.013295,34.0809032 117.013295,34.5931613 C117.013295,35.104129 116.598006,35.5157419 116.088566,35.5157419 C115.576548,35.5157419 115.162548,35.104129 115.162548,34.5931613 C115.162548,34.0809032 115.576548,33.668 116.088566,33.668" id="Fill-8" fill="#010202"></path>
                        <path d="M112.039363,36.7123871 L111.678241,36.7123871 L110.054484,34.4762581 L109.490877,34.9730323 L109.490877,36.7123871 L109.19811,36.7123871 L109.19811,32.4814194 L109.490877,32.4814194 L109.490877,34.6788387 L109.961624,34.2091613 L111.617624,32.4814194 L111.990353,32.4814194 L110.262129,34.2672258 L112.039363,36.7123871 Z M102.48125,34.6130323 L103.284746,34.6130323 C103.643288,34.6130323 103.917998,34.5317419 104.115325,34.3730323 C104.310073,34.2143226 104.409381,33.9781935 104.409381,33.6685161 C104.409381,33.3433548 104.315232,33.1059355 104.120484,32.9627097 C103.929606,32.8130323 103.614914,32.7407742 103.177699,32.7407742 L102.48125,32.7407742 L102.48125,34.6130323 Z M102.48125,34.8698065 L102.48125,36.7123871 L102.185905,36.7123871 L102.185905,32.4814194 L103.191886,32.4814194 C103.715512,32.4814194 104.103718,32.5794839 104.352634,32.7704516 C104.60155,32.9652903 104.727942,33.2569032 104.727942,33.6452903 C104.727942,33.9304516 104.653138,34.1691613 104.503531,34.364 C104.355213,34.5575484 104.129512,34.6981935 103.823849,34.7846452 L104.972989,36.7123871 L104.618316,36.7123871 L103.528503,34.8698065 L102.48125,34.8698065 Z M94.2618673,34.5872258 C94.2618673,35.1923871 94.3959981,35.6633548 94.6655495,35.9936774 C94.9363907,36.324 95.3245963,36.487871 95.8288766,36.487871 C96.3383159,36.487871 96.7252318,36.3265806 96.9947832,36.0014194 C97.2617551,35.6710968 97.3971757,35.200129 97.3971757,34.5872258 C97.3971757,33.9807742 97.2617551,33.5110968 96.9947832,33.1859355 C96.7252318,32.8620645 96.3408953,32.7007742 95.8327458,32.7007742 C95.3310449,32.7007742 94.9428393,32.8620645 94.6707084,33.1910968 C94.3985776,33.5188387 94.2618673,33.9859355 94.2618673,34.5872258 L94.2618673,34.5872258 Z M97.7170262,34.5898065 C97.7170262,35.2607742 97.5493626,35.7949677 97.2179047,36.1833548 C96.8825776,36.5730323 96.4169888,36.7704516 95.8288766,36.7704516 C95.2420542,36.7704516 94.7777551,36.5730323 94.4411383,36.1833548 C94.1096804,35.7949677 93.9420168,35.2607742 93.9420168,34.5833548 C93.9420168,33.9123871 94.1109701,33.3807742 94.4475869,32.9949677 C94.7867832,32.6117419 95.2472131,32.4181935 95.8327458,32.4181935 C96.4247271,32.4181935 96.8864467,32.6117419 97.2179047,32.9975484 C97.5519421,33.3885161 97.7170262,33.920129 97.7170262,34.5898065 L97.7170262,34.5898065 Z M80.5998673,36.7123871 L80.3561103,36.7123871 L79.4288019,33.4465806 C79.3527084,33.1820645 79.2933813,32.960129 79.2572692,32.7885161 C79.2263159,32.9549677 79.1811757,33.1459355 79.124428,33.3652903 C79.0663907,33.5846452 78.7555682,34.6981935 78.1919607,36.7123871 L77.9430449,36.7123871 L76.7797178,32.4814194 L77.0905402,32.4814194 L77.832129,35.2052903 C77.8592131,35.3162581 77.8850075,35.4169032 77.9120916,35.5123871 C77.937886,35.604 77.9585215,35.6917419 77.979157,35.7743226 C78.0010822,35.8556129 78.0191383,35.9356129 78.034615,36.0091613 C78.0513813,36.087871 78.0655682,36.1652903 78.0797551,36.2388387 C78.126185,35.9794839 78.2242037,35.5807742 78.3738112,35.0465806 L79.0986336,32.4814194 L79.4249327,32.4814194 L80.2722785,35.4246452 C80.3690075,35.7652903 80.4412318,36.0388387 80.4825028,36.2465806 C80.5070075,36.1098065 80.5392505,35.9588387 80.5779421,35.8052903 C80.6179234,35.6491613 80.9158486,34.5420645 81.470428,32.4814194 L81.7683533,32.4814194 L80.5998673,36.7123871 Z M72.7841664,36.7123871 L70.4716991,36.7123871 L70.4716991,32.4814194 L72.7841664,32.4814194 L72.7841664,32.7549677 L70.7670449,32.7549677 L70.7670449,34.3510968 L72.6693813,34.3510968 L72.6693813,34.6259355 L70.7670449,34.6259355 L70.7670449,36.4349677 L72.7841664,36.4349677 L72.7841664,36.7123871 Z M88.5187458,34.7949677 L89.7581664,32.4814194 L90.0767271,32.4814194 L88.6670636,35.0736774 L88.6670636,36.7123871 L88.3639794,36.7123871 L88.3639794,35.0994839 L86.949157,32.4814194 L87.2870636,32.4814194 L88.5187458,34.7949677 Z M65.7784093,36.7123871 L65.4817738,36.7123871 L62.9797178,32.9549677 L62.9552131,32.9549677 C62.9797178,33.4027097 62.9900355,33.7407742 62.9900355,33.9652903 L62.9900355,36.7123871 L62.7062972,36.7123871 L62.7062972,32.4814194 L63.0029327,32.4814194 L65.4998299,36.2310968 L65.5191757,36.2310968 C65.4998299,35.8827097 65.4920916,35.5523871 65.4920916,35.240129 L65.4920916,32.4814194 L65.7784093,32.4814194 L65.7784093,36.7123871 Z" id="Fill-10" fill="#010202"></path>
                        <path d="M89.5171178,27.8816774 L88.5472486,27.8816774 L88.5472486,15.0171613 L84.0719215,15.0171613 L84.0719215,14.1087742 L93.9911551,14.1087742 L93.9911551,15.0171613 L89.5171178,15.0171613 L89.5171178,27.8816774 Z M82.0264262,27.8816774 L81.0591364,27.8816774 L72.9093981,15.6545806 L72.8307252,15.6545806 C72.9093981,17.1100645 72.9429308,18.212 72.9429308,18.9500645 L72.9429308,27.8816774 L72.022071,27.8816774 L72.022071,14.1087742 L72.9816224,14.1087742 L81.1236224,26.3190968 L81.1790804,26.3190968 C81.1236224,25.1874839 81.097828,24.1139355 81.097828,23.0932903 L81.097828,14.1087742 L82.0264262,14.1087742 L82.0264262,27.8816774 Z M68.9099776,27.8816774 L61.3831738,27.8816774 L61.3831738,14.1087742 L68.9099776,14.1087742 L68.9099776,14.9952258 L62.3491738,14.9952258 L62.3491738,20.2055484 L68.5424075,20.2055484 L68.5424075,21.092 L62.3491738,21.092 L62.3491738,26.9952258 L68.9099776,26.9952258 L68.9099776,27.8816774 Z M55.2815103,14.7642581 C53.5545757,14.7642581 52.1952112,15.3178065 51.2047065,16.4223226 C50.2129121,17.532 49.7176598,19.0455484 49.7176598,20.972 C49.7176598,22.9397419 50.1871178,24.4687742 51.1208748,25.5552258 C52.0585009,26.6442581 53.3907813,27.1887742 55.1280336,27.1887742 C56.2849121,27.1887742 57.3476411,27.0403871 58.3123514,26.7449032 L58.3123514,27.5913548 C57.4018093,27.9139355 56.2681458,28.0726452 54.9049121,28.0726452 C52.9729121,28.0726452 51.4497533,27.4507097 50.338015,26.2003871 C49.2288561,24.9487742 48.6742766,23.2042581 48.6742766,20.9616774 C48.6742766,19.5603871 48.9360897,18.3255484 49.4661645,17.2597419 C49.997529,16.1926452 50.761043,15.3694194 51.7541271,14.7861935 C52.7510804,14.2029677 53.9079589,13.9165161 55.2260523,13.9165161 C56.5686505,13.9165161 57.7719589,14.1642581 58.8321084,14.6545806 L58.4426131,15.5152258 C57.4379215,15.0171613 56.3880897,14.7642581 55.2815103,14.7642581 L55.2815103,14.7642581 Z M46.4985196,24.335871 C46.4985196,25.4829677 46.0767813,26.3952258 45.232015,27.0649032 C44.3859589,27.7384516 43.2664822,28.0726452 41.8671364,28.0726452 C40.1840523,28.0726452 38.8943327,27.8894194 37.9941084,27.5190968 L37.9941084,26.5539355 C38.9871925,26.9771613 40.2511178,27.1887742 41.7897533,27.1887742 C42.9221271,27.1887742 43.8133234,26.9242581 44.4801084,26.4094194 C45.1417346,25.8907097 45.4731925,25.2132903 45.4731925,24.3707097 C45.4731925,23.852 45.3635664,23.4184516 45.1417346,23.0778065 C44.9224822,22.735871 44.5639402,22.4236129 44.0686879,22.1384516 C43.5734355,21.855871 42.8434542,21.5539355 41.8826131,21.2261935 C40.4781084,20.7397419 39.5082393,20.2210323 38.9730056,19.6584516 C38.4351925,19.095871 38.1656411,18.3449032 38.1656411,17.4107097 C38.1656411,16.3810323 38.5693234,15.5397419 39.3766879,14.8894194 C40.1840523,14.2390968 41.2171178,13.9165161 42.4874916,13.9165161 C43.7785009,13.9165161 44.9947065,14.1603871 46.1322393,14.6507097 L45.7814355,15.4790968 C44.6413234,15.0016774 43.5476411,14.7642581 42.5068374,14.7642581 C41.4879589,14.7642581 40.6793047,15.0003871 40.0782953,15.4726452 C39.4734168,15.9410323 39.1742019,16.5810323 39.1742019,17.3900645 C39.1742019,17.8997419 39.265772,18.3152258 39.4514916,18.6429677 C39.6359215,18.9707097 39.9402953,19.2649032 40.3607439,19.5242581 C40.7811925,19.7874839 41.5008561,20.0997419 42.5248935,20.4597419 C43.5992299,20.8326452 44.4053047,21.1952258 44.9444075,21.5410323 C45.4848,21.888129 45.8781645,22.2842581 46.1257907,22.728129 C46.3747065,23.172 46.4985196,23.7061935 46.4985196,24.335871 L46.4985196,24.335871 Z" id="Fill-12" fill="#010202"></path>
                    </g>
                </g>
            </g>
        </g>
    </g>
</svg>