
<svg width="21px" height="21px" viewBox="0 0 21 21" version="1.1" xmlns="http://www.w3.org/2000/svg" xmlns:xlink="http://www.w3.org/1999/xlink">
    <!-- Generator: Sketch 51.2 (57519) - http://www.bohemiancoding.com/sketch -->
    <desc>Created with Sketch.</desc>
    <defs></defs>
    <g id="Edited-payment-page-gender" stroke="none" stroke-width="1" fill="none" fill-rule="evenodd">
        <g id="Payment-Page-Copy" transform="translate(-1308.000000, -1007.000000)" fill="#000000">
            <g id="Group-8-Copy" transform="translate(588.000000, 883.000000)">
                <g id="Group-3" transform="translate(475.000000, 123.000000)">
                    <path d="M265.044922,19.3339844 C265.044922,19.8222681 264.874025,20.237303 264.532227,20.5791016 C264.190428,20.9209001 263.775393,21.0917969 263.287109,21.0917969 L247.671875,21.0917969 C247.183591,21.0917969 246.768556,20.9209001 246.426758,20.5791016 C246.084959,20.237303 245.914062,19.8222681 245.914062,19.3339844 L245.914062,3.71875 C245.914062,3.23046631 246.084959,2.8154314 246.426758,2.47363281 C246.768556,2.13183423 247.183591,1.9609375 247.671875,1.9609375 L263.287109,1.9609375 C263.775393,1.9609375 264.190428,2.13183423 264.532227,2.47363281 C264.874025,2.8154314 265.044922,3.23046631 265.044922,3.71875 L265.044922,19.3339844 Z M263.130859,17.7714844 L263.130859,5.28125 C263.130859,4.89062305 262.994142,4.55859512 262.720703,4.28515625 C262.447264,4.01171738 262.115236,3.875 261.724609,3.875 L249.224609,3.875 C248.833982,3.875 248.501954,4.01171738 248.228516,4.28515625 C247.955077,4.55859512 247.818359,4.89062305 247.818359,5.28125 L247.818359,17.7714844 C247.818359,18.1621113 247.955077,18.4941393 248.228516,18.7675781 C248.501954,19.041017 248.833982,19.1777344 249.224609,19.1777344 L261.724609,19.1777344 C262.115236,19.1777344 262.447264,19.041017 262.720703,18.7675781 C262.994142,18.4941393 263.130859,18.1621113 263.130859,17.7714844 Z M259.625,8.35742188 C259.625,9.07357129 259.416669,9.6367167 259,10.046875 C258.895833,10.1445317 258.469405,10.3886699 257.720703,10.7792969 C257.193357,11.0592462 256.900391,11.4108052 256.841797,11.8339844 C256.854818,11.7428381 256.861328,12.2734317 256.861328,13.4257812 L254.087891,13.4257812 L254.087891,12.15625 C254.087891,11.4596319 254.328774,10.8769555 254.810547,10.4082031 C254.85612,10.36263 255.295569,10.0403676 256.128906,9.44140625 C256.61719,9.10286289 256.861328,8.74153838 256.861328,8.35742188 C256.861328,8.01887852 256.724611,7.72428511 256.451172,7.47363281 C256.177733,7.22298052 255.852215,7.09765625 255.474609,7.09765625 L254.087891,7.09765625 C253.241532,7.09765625 252.782552,7.51757393 252.710938,8.35742188 L251.324219,8.35742188 C251.539064,6.67121553 252.460278,5.828125 254.087891,5.828125 L256.861328,5.828125 C257.629561,5.828125 258.282224,6.07389077 258.819336,6.56542969 C259.356448,7.0569686 259.625,7.65429336 259.625,8.35742188 Z M254.087891,17.2148438 L254.087891,14.6855469 L256.861328,14.6855469 L256.861328,17.2148438 L254.087891,17.2148438 Z" id="ï™"></path>
                </g>
            </g>
        </g>
    </g>
</svg>