<svg width="29px" height="35px" viewBox="0 0 29 35" version="1.1" xmlns="http://www.w3.org/2000/svg" xmlns:xlink="http://www.w3.org/1999/xlink">
    <!-- Generator: Sketch 51.2 (57519) - http://www.bohemiancoding.com/sketch -->
    <desc>Created with Sketch.</desc>
    <defs></defs>
    <g id="Edited-payment-page-gender" stroke="none" stroke-width="1" fill="none" fill-rule="evenodd">
        <g id="Payment-Page-Copy" transform="translate(-618.000000, -962.000000)" fill="#74BB2C">
            <g id="Group-8-Copy" transform="translate(588.000000, 883.000000)">
                <g id="Page-1-Copy" transform="translate(30.000000, 79.000000)">
                    <path d="M21.7761949,27.184428 C18.7563514,29.8574859 15.220505,31.6706549 14.2086984,32.1626841 L14.177404,32.1778971 L14.1461095,32.1627545 C13.1343741,31.6726974 9.59845661,29.8661489 6.57847084,27.1937248 C5.20194168,25.9756252 4.12043385,24.7437211 3.36396159,23.5322419 C2.48273826,22.1210915 2.03600996,20.7244499 2.03600996,19.381054 L2.03600996,6.5612504 L2.03600996,6.49081966 L2.10713371,6.49081966 L2.13757468,6.49081966 C3.45514225,6.49081966 5.48693457,6.37763746 7.68387624,5.83827884 C10.1663798,5.22884164 12.3367212,4.21280776 14.1345875,2.8185608 L14.1784708,2.78454275 L14.2222831,2.8185608 C16.0202205,4.21287819 18.1904196,5.22891207 20.6725676,5.83827884 C22.869367,6.37763746 24.9014438,6.49081966 26.219367,6.49081966 L26.2498791,6.49081966 L26.3210028,6.49081966 L26.3210028,6.5612504 L26.3210028,19.381054 C26.3210028,20.7201537 25.8739189,22.1139076 24.9921977,23.5236493 C24.2352987,24.7337903 23.153293,25.9654831 21.7761949,27.184428 M28.3546444,19.381054 L28.3546444,4.36254351 C28.1086984,4.392054 27.3209317,4.47473969 26.217091,4.47473969 C23.3146017,4.47473969 17.9032219,3.90115173 14.1773329,0.0704236984 C10.4514438,3.90115173 5.03928165,4.47473969 2.1364367,4.47473969 C1.03266714,4.47473969 0.245753912,4.392054 2.13371259e-05,4.36254351 L2.13371259e-05,19.381054 C2.13371259e-05,21.3954436 0.744544808,23.4381464 2.21289474,25.4526065 C3.39049075,27.0682172 5.0334495,28.6690376 7.09596728,30.2106961 C10.4434068,32.7127482 13.8316003,34.2486313 14.1773329,34.4025225 C14.5228521,34.2486313 17.9131081,32.7116917 21.2608321,30.2090762 C23.3227809,28.667629 24.9652418,27.0668791 26.1425533,25.4514796 C27.6104054,23.4374421 28.3546444,21.395021 28.3546444,19.381054" id="Fill-1"></path>
                    <path d="M16.1874609,15.7438133 L12.1671906,15.7438133 L12.1671906,14.0774924 C12.1671906,12.9798997 13.0689687,12.0869787 14.1773613,12.0869787 C15.2857539,12.0869787 16.1874609,12.9798997 16.1874609,14.0774924 L16.1874609,15.7438133 Z M14.7977738,20.2420839 L14.7977738,21.8155771 C14.7977738,21.9529874 14.685256,22.0644089 14.5464936,22.0644089 L13.8081579,22.0644089 C13.6693243,22.0644089 13.5568065,21.9529874 13.5568065,21.8155771 L13.5568065,20.2420839 C13.2822688,20.0493149 13.1029659,19.732447 13.1029659,19.3738137 C13.1029659,18.7863509 13.5839047,18.3099573 14.1772902,18.3099573 C14.7706046,18.3099573 15.2515434,18.7863509 15.2515434,19.3738137 C15.2516145,19.732447 15.0723115,20.0493149 14.7977738,20.2420839 L14.7977738,20.2420839 Z M18.7046017,15.7438133 L18.0240185,15.7438133 L18.0240185,14.0774924 C18.0240185,11.9771068 16.2984139,10.2682457 14.1773613,10.2682457 C12.0563087,10.2682457 10.330633,11.9771068 10.330633,14.0774924 L10.330633,15.7438133 L9.65004979,15.7438133 C9.43020626,15.7438133 9.25204125,15.9202423 9.25204125,16.1378733 L9.25204125,23.5288753 C9.25204125,23.7465767 9.43020626,23.9229353 9.65004979,23.9229353 L18.7046728,23.9229353 C18.9243741,23.9229353 19.1025391,23.7465767 19.1025391,23.5288753 L19.1025391,16.1378733 C19.1025391,15.9202423 18.9243741,15.7438133 18.7046017,15.7438133 L18.7046017,15.7438133 Z" id="Fill-4"></path>
                </g>
            </g>
        </g>
    </g>
</svg>